<svg xmlns="http://www.w3.org/2000/svg" viewBox="0 0 8510 8510" width="192" height="192">
  <rect width="8510" height="8510" fill="#000000"/>
  <g transform="translate(0,8510) scale(1,-1)" fill="#019833" stroke="none">
    <path d="M4620 8423 c-89 -9 -201 -38 -332 -84 -79 -28 -222 -68 -318 -90 -343 -77 -535 -161 -694 -302 -61 -54 -134 -150 -129 -169 2 -4 -1 -8 -5 -8 -9 0 -41 -64 -46 -90 -1 -8 -7 -24 -13 -35 -29 -53 -54 -167 -62 -280 l-8 -122 -59 -62 c-102 -109 -119 -145 -158 -327 -14 -65 -32 -141 -40 -169 -9 -27 -16 -60 -16 -72 0 -12 -3 -23 -7 -25 -9 -4 -54 -106 -56 -128 -1 -8 -4 -17 -7 -20 -3 -3 -40 -75 -83 -160 -81 -163 -214 -379 -301 -490 -82 -104 -141 -184 -141 -192 0 -5 -3 -7 -6 -5 -4 1 -31 -21 -61 -49 -90 -85 -172 -94 -322 -34 -89 35 -190 60 -251 60 -43 0 -156 -26 -165 -38 -3 -4 -14 -9 -25 -10 -29 -6 -75 -34 -69 -44 3 -5 2 -8 -3 -7 -21 4 -36 -4 -90 -50 -54 -44 -142 -146 -135 -157 1 -2 -6 -14 -17 -25 -50 -54 -110 -291 -97 -384 4 -27 -1 -58 -15 -95 -11 -30 -21 -60 -21 -67 -1 -7 -4 -10 -8 -8 -3 2 -28 -28 -55 -67 -116 -169 -341 -400 -424 -435 -45 -19 -189 2 -298 44 -11 4 -13 -304 -13 -1685 l0 -1690 27 -6 c260 -56 593 -57 1098 -5 346 36 618 21 1011 -56 391 -76 661 -70 935 19 110 36 300 112 309 124 3 4 10 7 15 7 15 1 113 33 127 42 7 4 19 8 28 9 8 1 62 11 120 24 208 44 506 29 795 -40 340 -81 322 -78 640 -95 251 -13 291 -18 390 -44 314 -84 338 -90 395 -95 14 -2 34 -7 45 -12 11 -5 130 -9 265 -9 314 1 498 26 808 110 92 25 322 117 346 139 6 6 17 12 24 14 70 14 363 254 403 328 8 15 26 40 40 55 15 16 65 86 112 156 47 71 109 156 136 191 28 34 51 65 51 70 0 4 3 7 8 7 4 0 45 38 91 83 46 45 86 82 88 82 2 0 17 15 33 33 l29 32 1 220 0 221 -37 35 c-72 68 -259 169 -284 153 -5 -3 -9 -1 -9 5 0 6 -7 7 -17 4 -11 -4 -14 -3 -9 5 4 7 2 12 -4 12 -6 0 -44 14 -85 32 l-75 32 6 101 c13 186 10 380 -4 398 -8 9 -13 35 -12 59 3 82 1 98 -16 98 -14 0 -16 9 -12 50 3 32 1 47 -5 43 -6 -4 -8 0 -4 10 9 23 -3 78 -15 71 -5 -3 -6 5 -3 18 7 32 -57 214 -74 210 -8 -2 -11 3 -8 12 4 10 1 13 -9 9 -8 -3 -14 1 -14 11 0 9 4 16 10 16 6 0 5 10 -2 25 -6 13 -15 22 -19 19 -5 -3 -6 3 -2 12 4 12 3 15 -5 10 -7 -4 -10 -2 -7 6 11 29 -185 296 -207 282 -4 -3 -11 3 -15 13 -9 28 -55 73 -66 66 -6 -3 -7 -1 -4 4 7 12 -37 48 -98 83 -51 28 -120 30 -141 4 -9 -10 -12 -12 -8 -4 4 8 -5 4 -21 -10 -75 -68 -80 -188 -16 -436 22 -89 46 -175 52 -190 7 -16 13 -36 14 -44 1 -8 12 -60 23 -115 34 -161 45 -284 37 -410 -7 -114 -7 -115 -32 -115 -43 0 -167 21 -215 36 -26 9 -53 12 -59 8 -8 -4 -9 -3 -5 4 4 7 3 12 -2 12 -4 0 -61 31 -125 69 -63 38 -119 66 -122 63 -4 -4 -14 3 -23 15 -9 12 -24 23 -32 25 -8 2 -23 11 -34 20 -10 10 -24 14 -30 11 -6 -3 -8 -2 -3 2 8 9 -100 85 -120 85 -7 0 -13 5 -13 12 0 6 -2 9 -5 6 -5 -5 -39 22 -125 100 -26 23 -52 42 -59 42 -6 0 -11 6 -11 14 0 8 -3 16 -7 18 -5 2 -26 23 -48 48 -22 25 -43 44 -47 43 -5 -2 -7 1 -5 7 1 5 -11 21 -28 35 -16 15 -24 23 -17 20 15 -8 -83 133 -107 153 -10 9 -11 11 -2 6 9 -5 8 2 -5 19 -10 15 -23 27 -27 27 -5 0 -5 5 -2 10 3 6 1 10 -5 10 -6 0 -8 4 -5 10 3 6 1 10 -4 10 -6 0 -10 3 -9 8 11 43 -402 667 -427 644 -5 -4 -5 -2 -2 4 7 12 -138 194 -153 194 -6 0 -9 4 -7 9 1 4 -27 46 -63 92 -117 150 -164 235 -215 384 -14 44 -30 87 -34 95 -23 46 -20 319 3 349 8 11 8 13 -1 7 -9 -5 -11 -2 -7 8 3 9 10 16 15 16 5 0 9 5 9 11 0 19 69 154 89 175 27 28 55 49 72 52 22 5 113 53 124 65 6 7 16 13 24 15 31 7 237 145 434 291 l100 75 56 -29 c31 -16 66 -37 79 -46 30 -23 158 -76 204 -84 113 -21 88 155 -42 299 -28 29 -50 61 -50 69 0 9 24 51 54 94 61 88 118 198 109 207 -4 3 -2 6 4 6 16 0 81 161 104 255 22 88 36 272 24 302 -4 10 -9 40 -11 66 -7 114 -73 270 -151 357 -44 50 -133 116 -164 122 -8 2 -16 5 -19 8 -29 32 -250 96 -560 164 -63 14 -214 48 -335 77 -121 28 -241 52 -267 53 -27 0 -48 4 -48 8 0 3 -35 9 -77 12 -43 4 -96 8 -118 10 -22 2 -56 1 -75 -1z m325 -2514 c4 -5 -4 -34 -16 -62 -34 -75 -35 -335 -2 -477 64 -278 92 -352 184 -490 58 -88 160 -220 171 -220 4 0 8 -6 8 -14 0 -8 12 -24 28 -36 15 -12 27 -26 27 -30 0 -5 52 -76 115 -157 63 -81 130 -169 149 -195 19 -26 38 -48 42 -48 5 0 9 -5 9 -11 0 -17 151 -249 161 -249 5 0 8 -3 7 -7 -4 -14 23 -54 33 -48 5 4 9 -1 9 -10 0 -19 71 -117 98 -137 10 -7 21 -18 23 -25 7 -19 130 -143 142 -143 7 0 17 -10 22 -22 14 -31 165 -159 178 -151 6 3 7 1 3 -5 -8 -14 172 -155 187 -145 5 3 8 2 4 -3 -3 -5 68 -62 158 -125 90 -64 161 -119 158 -123 -12 -11 -160 -6 -247 9 -119 21 -118 21 -146 32 -98 40 -241 50 -387 27 -34 -5 -44 -3 -49 10 -3 9 -10 13 -15 10 -5 -3 -9 3 -9 13 0 11 -7 28 -16 39 -8 10 -13 14 -10 7 4 -6 1 -13 -5 -15 -8 -3 -4 -18 10 -46 43 -85 19 -53 -33 43 -55 101 -135 202 -190 237 -25 16 -27 18 -7 13 17 -5 21 -4 16 5 -6 9 -2 9 16 0 20 -9 19 -7 -5 14 -17 14 -33 23 -38 20 -4 -3 -16 1 -28 8 -29 18 -52 1 -69 -51 -10 -33 -11 -48 -2 -64 12 -23 18 -64 22 -132 1 -39 2 -39 9 -10 6 22 8 25 9 9 0 -12 -6 -45 -16 -73 -9 -28 -13 -54 -10 -57 11 -12 27 8 28 34 0 15 7 -4 15 -42 7 -39 11 -72 9 -75 -3 -2 -5 3 -5 12 0 9 -6 17 -14 17 -8 0 -17 6 -20 13 -3 6 -3 0 0 -15 7 -33 4 -34 -75 -9 -33 10 -63 16 -66 13 -3 -3 -5 -1 -5 4 0 6 -19 21 -42 34 -24 13 -46 28 -50 34 -4 6 -8 7 -8 1 0 -5 -7 1 -16 13 -8 12 -19 20 -24 17 -5 -3 -14 3 -19 13 -15 28 -283 297 -303 305 -10 3 -18 14 -18 22 0 9 -35 55 -78 103 -43 48 -97 113 -121 145 -24 31 -47 57 -52 57 -5 0 -8 3 -7 8 4 11 -198 322 -206 317 -3 -3 -4 -2 -1 1 8 12 -140 244 -156 244 -5 0 -9 5 -9 11 0 24 -141 209 -159 209 -6 0 -11 6 -11 13 0 7 -33 51 -72 98 -138 160 -161 208 -187 391 -46 319 -31 531 38 553 49 15 121 -30 147 -92 8 -18 17 -68 20 -110 7 -84 16 -103 46 -103 30 0 131 103 200 204 137 201 313 388 413 440 34 18 101 21 110 5z m2415 -1684 c29 -19 53 -35 55 -35 12 0 161 -167 208 -233 32 -45 65 -83 73 -85 8 -2 14 -11 13 -20 -4 -27 11 -62 27 -62 8 0 13 -9 12 -22 -1 -19 39 -146 69 -218 3 -8 7 -22 8 -30 6 -51 30 -126 42 -133 9 -6 13 -25 12 -65 -2 -31 1 -120 6 -197 8 -142 1 -245 -31 -464 -17 -117 -18 -121 -43 -121 -31 0 -91 97 -75 121 3 5 0 8 -7 7 -6 -2 -14 3 -17 11 -3 8 0 11 6 7 51 -31 30 468 -29 699 -65 254 -240 589 -399 759 l-45 49 -6 -39 c-5 -29 -6 -24 -4 19 5 97 38 111 125 52z m-5872 -759 c2 -44 -1 -83 -5 -87 -4 -4 -7 30 -5 76 l3 85 -465 3 -466 2 467 0 468 0 3 -79z m1160 77 c-109 -2 -287 -2 -395 0 -109 1 -20 2 197 2 217 0 306 -1 198 -2z m-601 -125 c-2 -18 -4 -4 -4 32 0 36 2 50 4 33 2 -18 2 -48 0 -65z m242 -107 c11 -7 10 -21 -8 -82 -12 -41 -19 -58 -15 -39 16 100 17 112 3 121 -8 5 -9 9 -4 9 6 0 16 -4 24 -9z m5068 -188 c-2 -32 -3 -6 -3 57 0 63 1 89 3 58 2 -32 2 -84 0 -115z m13 -234 c-83 -50 -104 -62 -95 -52 15 16 109 73 120 73 6 0 -6 -10 -25 -21z m-848 -401 c9 -7 7 -8 -7 -6 -15 2 -21 12 -22 38 l-2 35 9 -29 c5 -16 15 -33 22 -38z m-685 -335 c-2 -32 -3 -6 -3 57 0 63 1 89 3 58 2 -32 2 -84 0 -115z m444 -100 l34 -38 -32 29 -33 30 0 -117 c0 -125 -11 -149 -65 -146 -16 1 -16 2 5 8 14 4 25 13 25 21 0 8 4 20 7 26 4 6 10 59 14 117 4 59 8 107 9 107 0 0 17 -17 36 -37z m-433 -46 c15 -16 14 -17 -1 -11 -12 4 -17 1 -18 -12 -1 -17 -2 -17 -6 1 -3 11 -15 31 -26 45 l-22 25 23 -19 c22 -19 22 -19 23 5 1 21 2 21 6 4 3 -11 12 -28 21 -38z m110 -151 c18 -9 32 -19 32 -22 0 -14 -84 44 -122 85 l-43 45 51 -46 c28 -25 65 -53 82 -62z m-4169 -32 c-10 -27 -12 -27 -19 -9 -13 30 -12 35 5 29 8 -4 15 -1 15 7 0 7 2 10 5 7 3 -3 0 -18 -6 -34z m3977 -264 c39 -44 41 -48 10 -20 -21 19 -47 49 -58 65 -25 35 -18 29 48 -45z"/>
  </g>
  <g transform="translate(0,8510) scale(1,-1)" fill="#ffffff" stroke="none">
    <path d="M7240 4151 c0 -24 20 -165 45 -315 70 -427 89 -656 66 -790 -7 -38 -10 -71 -7 -74 3 -2 32 3 64 12 148 41 209 -1 273 -190 43 -129 39 -123 51 -94 17 41 13 379 -6 500 -40 250 -114 452 -254 690 -65 110 -145 220 -196 269 l-36 35 0 -43z M550 3461 c0 -90 -14 -76 134 -127 l79 -27 39 -86 c22 -47 102 -250 179 -451 77 -201 191 -500 254 -665 64 -165 148 -388 188 -495 l74 -195 200 -3 201 -2 15 42 c44 124 209 565 247 658 13 30 48 125 80 210 230 625 357 949 381 975 6 6 56 26 112 46 l102 37 3 81 3 81 -396 0 -395 0 0 -80 0 -79 58 -16 c147 -41 192 -56 192 -65 0 -27 -50 -185 -115 -365 -246 -680 -372 -1032 -387 -1085 -5 -19 -13 -38 -17 -42 -3 -4 -37 79 -75 185 -37 106 -117 323 -176 482 -236 636 -290 789 -290 822 0 11 53 30 185 65 l50 14 3 82 3 82 -466 0 -465 0 0 -79z M5679 3343 c-10 -11 -14 -46 -13 -122 1 -114 15 -200 70 -430 104 -434 97 -390 98 -590 l2 -183 29 -25 c85 -68 206 -119 301 -124 l59 -4 8 75 c15 135 -12 368 -69 592 -88 348 -296 747 -425 813 -36 19 -43 19 -60 -2z M7431 2920 c-49 -23 -200 -112 -246 -146 -111 -82 -442 -235 -595 -275 -88 -22 -100 -20 -100 19 0 77 -53 162 -100 162 -41 0 -115 -67 -163 -147 -8 -13 38 -219 53 -236 3 -4 35 5 71 20 98 41 201 39 290 -4 36 -18 87 -49 113 -69 78 -59 172 -104 219 -104 135 0 434 272 541 492 112 229 75 359 -83 288z M5554 2222 c-36 -24 -43 -89 -19 -186 81 -318 216 -519 395 -587 81 -31 218 -44 335 -32 118 13 142 27 170 106 19 56 19 56 -2 169 -29 157 -71 261 -133 329 l-49 54 -1 -117 c0 -111 -1 -118 -22 -132 -60 -39 -190 -26 -281 27 -52 31 -127 110 -127 134 0 21 -152 195 -195 223 -32 21 -53 25 -71 12z"/>
  </g>
</svg>